<svg width="182" height="135" viewBox="0 0 182 135" fill="none" xmlns="http://www.w3.org/2000/svg">
<g filter="url(#filter0_d)">
<path d="M120.524 24.2362V7.4437C120.509 5.46412 119.711 3.57081 118.306 2.17658C116.9 0.782345 115.001 0.000175721 113.021 0.00023807H63.4776C62.4951 -0.0076221 61.5208 0.179227 60.6108 0.549775C59.7009 0.920324 58.8733 1.46716 58.1758 2.15913C57.4782 2.85111 56.9246 3.67455 56.5469 4.58153C56.1691 5.48852 55.9746 6.46118 55.9746 7.4437V24.2362H66.0977V10.0638H110.401V24.2362H120.524Z" fill="#042A97"/>
<path d="M176.321 31.0245C176.037 29.141 175.088 27.4214 173.646 26.1764C172.205 24.9314 170.365 24.2431 168.461 24.236H8.03901C6.12539 24.2452 4.27881 24.9419 2.83594 26.199C1.39308 27.456 0.450026 29.1894 0.178711 31.0837L75.983 80.5086V78.9603H100.517V80.0322L176.321 31.0245Z" fill="#828282"/>
<path d="M0.000227326 34.0612V122.073C-0.00769894 123.115 0.191725 124.149 0.586927 125.113C0.98213 126.078 1.56522 126.954 2.30223 127.691C3.03924 128.428 3.91545 129.011 4.87991 129.406C5.84437 129.801 6.87783 130.001 7.92009 129.993H168.342C169.384 130.001 170.417 129.801 171.382 129.406C172.346 129.011 173.223 128.428 173.96 127.691C174.697 126.954 175.28 126.078 175.675 125.113C176.07 124.149 176.269 123.115 176.262 122.073V33.9424L100.398 83.0096V97.4201H75.864V83.4861L0.000227326 34.0612Z" fill="#828282"/>
<path d="M97.7723 81.2833H79.2529V94.7408H97.7723V81.2833Z" fill="#828282"/>
</g>
<defs>
<filter id="filter0_d" x="0" y="0" width="181.321" height="134.993" filterUnits="userSpaceOnUse" color-interpolation-filters="sRGB">
<feFlood flood-opacity="0" result="BackgroundImageFix"/>
<feColorMatrix in="SourceAlpha" type="matrix" values="0 0 0 0 0 0 0 0 0 0 0 0 0 0 0 0 0 0 127 0"/>
<feOffset dx="5" dy="5"/>
<feColorMatrix type="matrix" values="0 0 0 0 0 0 0 0 0 0 0 0 0 0 0 0 0 0 0.15 0"/>
<feBlend mode="normal" in2="BackgroundImageFix" result="effect1_dropShadow"/>
<feBlend mode="normal" in="SourceGraphic" in2="effect1_dropShadow" result="shape"/>
</filter>
</defs>
</svg>
