<svg width="25" height="25" viewBox="0 0 25 25" fill="none" xmlns="http://www.w3.org/2000/svg">
<path fill-rule="evenodd" clip-rule="evenodd" d="M21.6469 5.69681C21.7196 5.76938 21.7774 5.85559 21.8167 5.9505C21.8561 6.04542 21.8764 6.14717 21.8764 6.24993C21.8764 6.35269 21.8561 6.45445 21.8167 6.54936C21.7774 6.64427 21.7196 6.73049 21.6469 6.80306L10.7094 17.7406C10.6368 17.8133 10.5506 17.871 10.4557 17.9104C10.3608 17.9498 10.259 17.9701 10.1563 17.9701C10.0535 17.9701 9.95175 17.9498 9.85683 17.9104C9.76192 17.871 9.67571 17.8133 9.60314 17.7406L4.13439 12.2718C3.98769 12.1251 3.90527 11.9261 3.90527 11.7187C3.90527 11.5112 3.98769 11.3123 4.13439 11.1656C4.28108 11.0189 4.48005 10.9364 4.68751 10.9364C4.89497 10.9364 5.09394 11.0189 5.24064 11.1656L10.1563 16.0827L20.5406 5.69681C20.6132 5.62405 20.6994 5.56633 20.7943 5.52694C20.8892 5.48756 20.991 5.46729 21.0938 5.46729C21.1965 5.46729 21.2983 5.48756 21.3932 5.52694C21.4881 5.56633 21.5743 5.62405 21.6469 5.69681Z" fill="#EE3834"/>
</svg>
