<svg width="19" height="13" viewBox="0 0 19 13" fill="none" xmlns="http://www.w3.org/2000/svg">
<path fill-rule="evenodd" clip-rule="evenodd" d="M18.6469 0.696807C18.7196 0.769378 18.7774 0.85559 18.8167 0.950504C18.8561 1.04542 18.8764 1.14717 18.8764 1.24993C18.8764 1.35269 18.8561 1.45445 18.8167 1.54936C18.7774 1.64427 18.7196 1.73049 18.6469 1.80306L7.70938 12.7406C7.63681 12.8133 7.5506 12.871 7.45569 12.9104C7.36077 12.9498 7.25902 12.9701 7.15626 12.9701C7.0535 12.9701 6.95175 12.9498 6.85683 12.9104C6.76192 12.871 6.67571 12.8133 6.60314 12.7406L1.13439 7.27181C0.987687 7.12511 0.905273 6.92614 0.905273 6.71868C0.905273 6.51122 0.987687 6.31226 1.13439 6.16556C1.28108 6.01886 1.48005 5.93645 1.68751 5.93645C1.89497 5.93645 2.09394 6.01886 2.24064 6.16556L7.15626 11.0827L17.5406 0.696807C17.6132 0.624052 17.6994 0.566329 17.7943 0.526943C17.8892 0.487558 17.991 0.467285 18.0938 0.467285C18.1965 0.467285 18.2983 0.487558 18.3932 0.526943C18.4881 0.566329 18.5743 0.624052 18.6469 0.696807Z" fill="#042A97"/>
</svg>
