<svg width="182" height="155" viewBox="0 0 182 155" fill="none" xmlns="http://www.w3.org/2000/svg">
<g filter="url(#filter0_d)">
<path d="M72.7851 3.60223C84.9174 3.45031 96.8929 6.35242 107.61 12.0418C118.326 17.7311 127.44 26.0249 134.111 36.1594L137.781 33.9692C127.062 17.5678 110.35 6.01255 91.2199 1.77515C72.09 -2.46225 52.0614 0.954768 35.4187 11.2953C18.7759 21.6359 6.84068 38.0786 2.16601 57.1063C-2.50865 76.1341 0.448576 96.236 10.405 113.111C20.3615 129.987 36.5265 142.295 55.4421 147.405C74.3578 152.514 94.5218 150.018 111.621 140.451C128.72 130.884 141.396 115.006 146.938 96.212C152.479 77.4184 150.446 57.2025 141.274 39.8887L137.604 42.0789C144.974 55.9429 147.617 71.834 145.132 87.3375C142.646 102.841 135.167 117.109 123.832 127.974C112.497 138.839 97.9242 145.707 82.3293 147.533C66.7344 149.36 50.9696 146.046 37.4302 138.095C23.8909 130.143 13.3173 117.99 7.31612 103.48C1.31497 88.9708 0.214321 72.8988 4.18151 57.7068C8.1487 42.5147 16.9668 29.0331 29.2958 19.3103C41.6248 9.58756 56.7909 4.15517 72.4892 3.83887L72.7851 3.60223Z" fill="#666666"/>
<path d="M73.2956 25.0648C81.7361 24.9211 90.0805 26.8738 97.5808 30.748C105.081 34.6221 111.503 40.2966 116.271 47.2628L130.892 38.4429C121.823 24.7858 108.134 14.8566 92.3363 10.4767C76.5383 6.09678 59.6908 7.55991 44.8844 14.5976C30.078 21.6354 18.3056 33.7759 11.7268 48.7919C5.14797 63.8078 4.2039 80.6922 9.06781 96.3479C13.9317 112.004 24.2775 125.381 38.2071 134.025C52.1367 142.669 68.7161 146.002 84.9038 143.41C101.092 140.819 115.802 132.477 126.337 119.916C136.872 107.355 142.524 91.417 142.258 75.0253C142.102 64.2984 139.382 53.7645 134.325 44.3031L119.704 53.1823C123.208 60.0439 125.092 67.6176 125.21 75.3212C125.372 85.423 122.536 95.3463 117.059 103.836C111.582 112.326 103.711 119.001 94.4403 123.018C85.1699 127.034 74.9167 128.212 64.9771 126.401C55.0375 124.591 45.8579 119.874 38.599 112.847C31.34 105.82 26.3279 96.798 24.196 86.9224C22.0642 77.0468 22.9086 66.7609 26.6223 57.3651C30.3361 47.9693 36.7525 39.8855 45.0602 34.1362C53.3679 28.3869 63.1938 25.23 73.2956 25.0648Z" fill="#666666"/>
<path d="M73.4337 41.6639C78.8997 41.5773 84.3057 42.813 89.1911 45.266C94.0765 47.719 98.2966 51.3167 101.492 55.7523L116.113 46.8731C109.183 36.7604 98.8477 29.4771 86.9933 26.3525C75.1389 23.2279 62.5562 24.4705 51.542 29.8534C40.5277 35.2364 31.8164 44.4003 26.9984 55.6732C22.1803 66.946 21.5768 79.5757 25.2979 91.2566C29.019 102.937 36.8167 112.891 47.2675 119.299C57.7182 125.708 70.1251 128.145 82.2235 126.165C94.3218 124.185 105.305 117.92 113.167 108.515C121.03 99.1088 125.248 87.1891 125.052 74.9314C124.934 67.2279 123.05 59.6541 119.546 52.7925L104.925 61.6125C106.896 65.8844 107.945 70.5232 108.003 75.2273C108.096 81.9557 106.193 88.5607 102.533 94.2076C98.8735 99.8546 93.6222 104.29 87.4428 106.954C81.2633 109.617 74.4329 110.389 67.8148 109.173C61.1967 107.956 55.0878 104.805 50.2599 100.117C45.432 95.43 42.1018 89.4169 40.6901 82.8376C39.2784 76.2583 39.8484 69.4081 42.3284 63.1527C44.8083 56.8973 49.0867 51.5172 54.6231 47.6925C60.1595 43.8677 66.7054 41.7698 73.4337 41.6639Z" fill="#BDBDBD"/>
<path d="M76.3336 70.9661L86.9295 64.573C84.2939 61.5542 80.679 59.5606 76.7196 58.9418C72.7602 58.323 68.7093 59.1187 65.2783 61.1894C61.8472 63.2601 59.2554 66.4733 57.9577 70.2649C56.66 74.0564 56.7394 78.1837 58.182 81.9225C59.6247 85.6612 62.3384 88.7725 65.8466 90.7096C69.3548 92.6466 73.4334 93.2861 77.366 92.5153C81.2987 91.7446 84.834 89.613 87.3515 86.495C89.869 83.377 91.2076 79.4718 91.1323 75.465C91.0681 73.7791 90.7895 72.1081 90.3035 70.4925L79.4117 77.063C78.7499 77.4618 77.9584 77.5861 77.2063 77.4091C76.4542 77.2322 75.801 76.7681 75.3865 76.1161C75.0896 75.7232 74.8778 75.2729 74.7643 74.7937C74.6508 74.3146 74.6382 73.8169 74.7273 73.3326C74.8163 72.8483 75.0052 72.3881 75.2817 71.9806C75.5582 71.5732 75.9164 71.2277 76.3336 70.9661Z" fill="#BDBDBD"/>
<path d="M171.756 32.7265C172.08 32.9136 172.447 33.012 172.821 33.012C173.195 33.012 173.563 32.9136 173.887 32.7265L176.136 31.3652C176.393 31.3215 176.623 31.1797 176.777 30.9699C176.932 30.7601 176.999 30.4987 176.965 30.2405C176.964 30.0433 176.908 29.8502 176.803 29.683C176.699 29.5158 176.55 29.3811 176.373 29.2935L166.014 23.8473L167.139 23.137C167.273 23.0639 167.39 22.9626 167.482 22.84C167.574 22.7174 167.639 22.5764 167.671 22.4267C167.757 22.1572 167.757 21.8674 167.671 21.5979L166.191 19.2895C166.033 19.0413 165.787 18.8611 165.502 18.7845C165.217 18.7078 164.914 18.7402 164.652 18.8751L163.468 19.6447V7.80573C163.467 7.60854 163.411 7.41546 163.306 7.24825C163.202 7.08103 163.053 6.94604 162.877 6.85841C162.713 6.77033 162.53 6.72437 162.344 6.72437C162.158 6.72437 161.975 6.77033 161.811 6.85841L159.562 8.22013C159.238 8.42015 158.971 8.69856 158.785 9.0298C158.599 9.36105 158.499 9.73401 158.496 10.1141L158.792 22.3674L158.2 22.7226L157.904 10.8836C157.916 10.6913 157.871 10.4998 157.776 10.3319C157.682 10.164 157.542 10.027 157.371 9.93666C157.2 9.83794 157.006 9.78599 156.809 9.78599C156.611 9.78599 156.418 9.83794 156.247 9.93666L154.057 11.2388C153.712 11.4293 153.428 11.7144 153.239 12.0604C153.051 12.4064 152.964 12.7991 152.991 13.1923V25.4457L152.399 25.8008V13.9619C152.398 13.7647 152.342 13.5716 152.237 13.4044C152.133 13.2372 151.984 13.1025 151.807 13.0149C151.647 12.9152 151.463 12.8621 151.274 12.8621C151.086 12.8621 150.901 12.9152 150.742 13.0149L148.492 14.3763C148.169 14.5763 147.902 14.8551 147.715 15.1863C147.529 15.5175 147.43 15.8905 147.427 16.2706V26.6889C147.438 26.8812 147.394 27.0724 147.299 27.2402C147.205 27.4081 147.064 27.5455 146.894 27.6359L138.192 32.9635L134.522 35.1537L131.148 37.1662L116.527 45.9861L101.906 54.8654L87.2255 63.6857L76.3336 70.9666C75.9359 71.2142 75.5911 71.5379 75.3191 71.9193C75.0471 72.3007 74.8533 72.7322 74.7488 73.1889C74.6443 73.6456 74.631 74.1185 74.71 74.5802C74.789 75.042 74.9585 75.4839 75.2089 75.8798C75.6235 76.5319 76.2766 76.9959 77.0288 77.1729C77.7809 77.3499 78.5723 77.2256 79.2341 76.8268L90.126 70.2562L104.866 61.377L119.487 52.557L134.108 43.6778L137.541 41.6058L141.211 39.4156L149.913 34.1472C150.073 34.0474 150.257 33.9947 150.446 33.9947C150.634 33.9947 150.818 34.0474 150.978 34.1472L160.627 39.1789C160.951 39.366 161.318 39.4644 161.693 39.4644C162.067 39.4644 162.434 39.366 162.758 39.1789L165.007 37.8176C165.178 37.7272 165.318 37.5898 165.413 37.422C165.507 37.2541 165.552 37.0626 165.54 36.8703C165.539 36.6731 165.483 36.48 165.379 36.3128C165.274 36.1456 165.125 36.0109 164.948 35.9233L154.589 30.4771L155.122 30.1219L166.132 36.0414C166.467 36.2281 166.844 36.3261 167.227 36.3261C167.611 36.3261 167.988 36.2281 168.322 36.0414L170.572 34.6801C170.731 34.5636 170.862 34.4125 170.954 34.2382C171.046 34.0639 171.098 33.871 171.105 33.6739C171.082 33.4898 171.017 33.3136 170.914 33.1594C170.811 33.0051 170.674 32.8771 170.513 32.7858L160.095 27.2807L160.686 26.9256L171.756 32.7265Z" fill="#042A97"/>
</g>
<defs>
<filter id="filter0_d" x="0" y="0" width="181.974" height="155" filterUnits="userSpaceOnUse" color-interpolation-filters="sRGB">
<feFlood flood-opacity="0" result="BackgroundImageFix"/>
<feColorMatrix in="SourceAlpha" type="matrix" values="0 0 0 0 0 0 0 0 0 0 0 0 0 0 0 0 0 0 127 0"/>
<feOffset dx="5" dy="5"/>
<feColorMatrix type="matrix" values="0 0 0 0 0 0 0 0 0 0 0 0 0 0 0 0 0 0 0.15 0"/>
<feBlend mode="normal" in2="BackgroundImageFix" result="effect1_dropShadow"/>
<feBlend mode="normal" in="SourceGraphic" in2="effect1_dropShadow" result="shape"/>
</filter>
</defs>
</svg>
