<svg width="165" height="155" viewBox="0 0 165 155" fill="none" xmlns="http://www.w3.org/2000/svg">
<g filter="url(#filter0_d)">
<path d="M160 110.537H118.61V149.999H160V110.537Z" fill="#666666"/>
<path d="M100.669 74.4321H59.2803V150H100.669V74.4321Z" fill="#666666"/>
<path d="M23.7019 150L0 119.628V111.674L29.9205 150H23.7019Z" fill="#042A97"/>
<path d="M31.5007 150L0 109.608V101.653L37.7192 150H31.5007Z" fill="#042A97"/>
<path d="M35.2236 34.5564H41.3912V42.4077L35.2236 34.5564Z" fill="#042A97"/>
<path d="M41.3892 112.551L0 59.504V51.5493L41.3892 104.597V112.551Z" fill="#042A97"/>
<path d="M41.3892 122.572L0 69.5253V61.5706L41.3892 114.618V122.572Z" fill="#042A97"/>
<path d="M41.3892 150H39.3503L0 99.587V91.6323L41.3892 144.628V150Z" fill="#042A97"/>
<path d="M41.3892 102.53L0 49.4833V41.5286L41.3892 94.5759V102.53Z" fill="#042A97"/>
<path d="M41.3892 142.614L0 89.5665V81.6118L41.3892 134.659V142.614Z" fill="#042A97"/>
<path d="M41.3901 52.4283L27.4238 34.5564H33.6424L41.3901 44.4736V52.4283Z" fill="#042A97"/>
<path d="M41.3892 132.592L0 79.5453V71.5906L41.3892 124.586V132.592Z" fill="#042A97"/>
<path d="M41.3862 72.4695L11.7715 34.5564H17.9901L41.3862 64.5148V72.4695Z" fill="#042A97"/>
<path d="M0 139.668V131.662L14.2721 149.999H8.05356L0 139.668Z" fill="#042A97"/>
<path d="M0 149.639V141.684L6.47344 150H0.254856L0 149.639Z" fill="#042A97"/>
<path d="M41.3909 82.4901L3.97754 34.5564H10.1451L41.3909 74.5354V82.4901Z" fill="#042A97"/>
<path d="M15.9032 149.999L0 129.648V121.694L22.1218 149.999H15.9032Z" fill="#042A97"/>
<path d="M41.3892 54.4942V62.4489L19.5732 34.5564H25.7918L41.3892 54.4942Z" fill="#042A97"/>
<path d="M41.3892 92.5104L0 39.4635V34.5564H2.3447L41.3892 84.5561V92.5104Z" fill="#042A97"/>
<path d="M41.3874 44.4736L33.6396 34.5564H35.2198L41.3874 42.4077V44.4736Z" fill="white"/>
<path d="M41.3865 54.4942L25.7891 34.5564H27.4202L41.3865 52.4283V54.4942Z" fill="white"/>
<path d="M41.3893 64.5148L17.9932 34.5564H19.5733L41.3893 62.4489V64.5148Z" fill="white"/>
<path d="M41.3894 74.5354L10.1436 34.5564H11.7747L41.3894 72.4695V74.5354Z" fill="white"/>
<path d="M41.3902 84.5561L2.3457 34.5564H3.9768L41.3902 82.4901V84.5561Z" fill="white"/>
<path d="M41.3892 94.5764L0 41.529V39.4631L41.3892 92.5101V94.5764Z" fill="white"/>
<path d="M41.3892 104.597L0 51.5496V49.4836L41.3892 102.531V104.597Z" fill="white"/>
<path d="M41.3892 114.617L0 61.5701V59.5042L41.3892 112.551V114.617Z" fill="white"/>
<path d="M41.3892 124.586L0 71.5906V69.5247L41.3892 122.572V124.586Z" fill="white"/>
<path d="M41.3892 134.659L0 81.6113V79.5454L41.3892 132.592V134.659Z" fill="white"/>
<path d="M41.3892 144.627L0 91.6318V89.5659L41.3892 142.613V144.627Z" fill="white"/>
<path d="M37.7192 149.999L0 101.652V99.5864L39.3503 149.999H37.7192Z" fill="white"/>
<path d="M29.9205 150L0 111.674V109.608L31.5007 150H29.9205Z" fill="white"/>
<path d="M22.1218 150L0 121.694V119.628L23.7019 150H22.1218Z" fill="white"/>
<path d="M0 131.663V129.648L15.9032 150H14.2721L0 131.663Z" fill="white"/>
<path d="M0 141.683V139.668L8.05356 149.999H6.47344L0 141.683Z" fill="white"/>
<path d="M0 149.638L0.254856 149.999H0V149.638Z" fill="white"/>
<path d="M125.134 28.0994C125.703 27.953 126.295 27.9225 126.876 28.0098C127.457 28.0972 128.015 28.3004 128.518 28.6079C129.02 28.9154 129.458 29.321 129.804 29.8012C130.151 30.2813 130.4 30.8267 130.537 31.4052L135.634 53.2542C135.78 53.8341 135.81 54.4374 135.725 55.0294C135.639 55.6214 135.439 56.1906 135.136 56.7041C134.833 57.2176 134.433 57.6655 133.958 58.0219C133.484 58.3783 132.945 58.6362 132.372 58.781L112.34 63.9463C111.771 64.0853 111.181 64.1094 110.603 64.0172C110.025 63.925 109.47 63.7184 108.971 63.4091C108.471 63.0997 108.037 62.6937 107.692 62.2142C107.348 61.7348 107.1 61.1912 106.963 60.6146C106.826 60.038 106.802 59.4397 106.893 58.8538C106.984 58.268 107.188 57.706 107.493 57.2C107.798 56.694 108.199 56.254 108.672 55.9049C109.145 55.5558 109.681 55.3043 110.25 55.1653L119.069 52.996L58.2081 8.21326C57.2594 7.49258 56.6268 6.424 56.4458 5.23655C56.2648 4.04911 56.5497 2.83696 57.2396 1.85978C57.5877 1.37815 58.0259 0.970819 58.5294 0.660836C59.0328 0.350853 59.5916 0.144458 60.1738 0.0533255C60.756 -0.0378075 61.3502 -0.0119741 61.9225 0.129619C62.4948 0.271212 63.0339 0.525608 63.5092 0.878367L124.676 45.8162L121.821 33.2646C121.633 32.1394 121.869 30.9835 122.482 30.0266C123.096 29.0696 124.043 28.3816 125.134 28.0994Z" fill="#042A97"/>
</g>
<defs>
<filter id="filter0_d" x="0" y="0" width="165" height="155" filterUnits="userSpaceOnUse" color-interpolation-filters="sRGB">
<feFlood flood-opacity="0" result="BackgroundImageFix"/>
<feColorMatrix in="SourceAlpha" type="matrix" values="0 0 0 0 0 0 0 0 0 0 0 0 0 0 0 0 0 0 127 0"/>
<feOffset dx="5" dy="5"/>
<feColorMatrix type="matrix" values="0 0 0 0 0 0 0 0 0 0 0 0 0 0 0 0 0 0 0.15 0"/>
<feBlend mode="normal" in2="BackgroundImageFix" result="effect1_dropShadow"/>
<feBlend mode="normal" in="SourceGraphic" in2="effect1_dropShadow" result="shape"/>
</filter>
</defs>
</svg>
