<svg width="152" height="155" viewBox="0 0 152 155" fill="none" xmlns="http://www.w3.org/2000/svg">
<g filter="url(#filter0_d)">
<path d="M97.2389 43.9531L87.9489 53.2432L74.1453 67.0907L64.5046 76.6875L52.4101 88.8259L42.6379 98.2912L40.5783 100.395L42.7694 102.586L124.759 20.5965L122.524 18.4054L113.76 27.1696V3.19949C113.754 2.35039 113.425 1.53532 112.839 0.920843C112.539 0.624813 112.183 0.391129 111.792 0.233197C111.401 0.0752655 110.982 -0.00375928 110.561 0.000638639H3.19898C2.78321 -0.00790622 2.37018 0.0693745 1.98564 0.227714C1.6011 0.386054 1.25328 0.622011 0.964068 0.920843C0.660123 1.21763 0.418408 1.57204 0.252886 1.96328C0.0873631 2.35451 0.00134202 2.77468 0 3.19949V146.801C0.0221541 147.643 0.366345 148.443 0.961528 149.039C1.55671 149.634 2.35756 149.978 3.19898 150H91.104C91.5288 149.999 91.9491 149.913 92.3403 149.747C92.7316 149.582 93.0859 149.34 93.3826 149.036L103.242 139.264L112.927 129.536C113.513 128.921 113.842 128.106 113.847 127.257V53.3746L107.449 59.8163V120.859H87.0725C86.2154 120.867 85.396 121.213 84.7938 121.823C84.2105 122.422 83.8808 123.222 83.8736 124.058V143.602H6.52943V6.26702H107.581V33.4799L97.2389 43.9531ZM90.4028 127.213H107.449L90.4028 143.69V127.213Z" fill="#042A97"/>
<path d="M98.5082 22.9644H20.8135V32.2544H98.5082V22.9644Z" fill="#666666"/>
<path d="M12.0508 53.2441H87.9489L97.2389 43.9541H12.0508V53.2441Z" fill="#666666"/>
<path d="M12.3164 76.6881H64.5073L74.148 67.0913H12.3164V76.6881Z" fill="#666666"/>
<path d="M101.753 76.6881V67.0913H100.307L90.666 76.6881H101.753Z" fill="#666666"/>
<path d="M101.755 98.4225V88.8257H78.5733L68.9326 98.4225H101.755Z" fill="#666666"/>
<path d="M12.3164 98.4225H42.7721L52.4128 88.8257H12.3164V98.4225Z" fill="#666666"/>
<path d="M30.2831 120.159L30.5898 119.545L34.9719 110.562H12.3164V120.159H30.2831Z" fill="#666666"/>
<path d="M51.4065 115.821L42.2041 120.203H79.7588V110.562H57.0156L53.992 113.586L51.8009 111.395L50.9683 110.562H48.5582L51.7133 113.717C51.8424 113.858 51.9403 114.024 52.0007 114.206C52.0611 114.387 52.0826 114.579 52.0638 114.769C52.0576 114.987 51.9933 115.199 51.8778 115.384C51.7623 115.569 51.5997 115.719 51.4065 115.821Z" fill="#666666"/>
<path d="M107.495 127.257H90.4053V143.734L107.495 127.257Z" fill="white"/>
<path d="M90.666 76.6877L95.574 71.7798L90.666 76.6877Z" fill="white"/>
<path d="M126.092 22.3791L44.1338 104.337L49.9592 110.163L131.918 28.2045L126.092 22.3791Z" fill="#4F4F4F"/>
<path d="M53.7692 113.586L135.758 31.6408L133.567 29.4497L51.5781 111.395L53.7692 113.586Z" fill="#042A97"/>
<path d="M40.5782 102.674C40.4428 102.539 40.2755 102.44 40.0917 102.386C39.9079 102.333 39.7135 102.326 39.5265 102.368C39.3342 102.386 39.1505 102.457 38.9959 102.573C38.8413 102.689 38.7216 102.845 38.6501 103.025L35.013 110.431L30.6309 119.414L34.7938 123.577L42.0242 120.028L51.2267 115.645C51.3966 115.56 51.5446 115.437 51.6586 115.285C51.7727 115.133 51.8498 114.956 51.884 114.769C51.9028 114.579 51.8812 114.387 51.8208 114.206C51.7604 114.025 51.6625 113.858 51.5335 113.717L48.3783 110.562L40.5782 102.674Z" fill="#666666"/>
<path d="M28.0928 124.584C27.9849 124.816 27.9524 125.076 27.9996 125.328C28.0467 125.579 28.1711 125.809 28.3557 125.987C28.531 126.16 28.7563 126.275 28.9999 126.314C29.2434 126.353 29.4931 126.315 29.7141 126.206L34.7536 123.708L30.5906 119.545L30.2838 120.158L28.0928 124.584Z" fill="#042A97"/>
<path d="M130.633 10.6499L129.143 12.1836L126.602 14.7252L123.841 17.4421L136.987 30.5884L139.704 27.8278L142.246 25.2861L143.779 23.7962C145.523 22.0529 146.502 19.6884 146.502 17.223C146.502 14.7576 145.523 12.3932 143.779 10.6499C142.036 8.90657 139.672 7.92725 137.206 7.92725C134.741 7.92725 132.376 8.90657 130.633 10.6499Z" fill="#042A97"/>
</g>
<defs>
<filter id="filter0_d" x="0" y="0" width="151.502" height="155" filterUnits="userSpaceOnUse" color-interpolation-filters="sRGB">
<feFlood flood-opacity="0" result="BackgroundImageFix"/>
<feColorMatrix in="SourceAlpha" type="matrix" values="0 0 0 0 0 0 0 0 0 0 0 0 0 0 0 0 0 0 127 0"/>
<feOffset dx="5" dy="5"/>
<feColorMatrix type="matrix" values="0 0 0 0 0 0 0 0 0 0 0 0 0 0 0 0 0 0 0.15 0"/>
<feBlend mode="normal" in2="BackgroundImageFix" result="effect1_dropShadow"/>
<feBlend mode="normal" in="SourceGraphic" in2="effect1_dropShadow" result="shape"/>
</filter>
</defs>
</svg>
