<svg width="178" height="155" viewBox="0 0 178 155" fill="none" xmlns="http://www.w3.org/2000/svg">
<g filter="url(#filter0_d)">
<path d="M172.552 39.9174L172.254 39.4484L161.471 28.1973C161.32 27.9641 161.224 27.6995 161.19 27.4237C161.157 27.1479 161.186 26.8681 161.276 26.6054C161.366 26.3426 161.515 26.1037 161.712 25.9069C161.908 25.7102 162.146 25.5607 162.409 25.4697C164.228 24.9367 165.879 23.9443 167.204 22.5878C168.528 21.2313 169.481 19.5564 169.97 17.7248C170.459 15.8932 170.468 13.9665 169.997 12.1303C169.525 10.2941 168.589 8.61039 167.277 7.2413C165.966 5.87221 164.324 4.86391 162.51 4.31362C160.696 3.76332 158.77 3.68968 156.919 4.09954C155.068 4.5094 153.354 5.38895 151.942 6.65368C150.53 7.91841 149.467 9.52558 148.856 11.3203C148.758 11.5776 148.602 11.8089 148.4 11.9961C148.199 12.1833 147.956 12.3215 147.693 12.3998C147.429 12.4781 147.15 12.4944 146.879 12.4477C146.608 12.4009 146.351 12.2922 146.128 12.13L135.346 0.836035L134.92 0.495274C134.587 0.17743 134.144 0 133.684 0C133.224 0 132.781 0.17743 132.448 0.495274L120.003 12.3858C119.615 12.415 119.227 12.3135 118.903 12.0973C118.579 11.881 118.336 11.5624 118.213 11.1923C117.586 9.13593 116.381 7.30351 114.741 5.91311C113.101 4.52272 111.096 3.63316 108.965 3.35064C108.43 3.24713 107.881 3.24713 107.346 3.35064C105.238 3.50795 103.216 4.25145 101.508 5.49718C99.8006 6.7429 98.4753 8.44131 97.6818 10.4005C96.8884 12.3597 96.6584 14.5015 97.018 16.5844C97.3776 18.6673 98.3124 20.6082 99.7168 22.188C100.911 23.4007 102.369 24.3198 103.979 24.8729C104.37 24.9917 104.701 25.2582 104.9 25.6161C105.099 25.974 105.15 26.3954 105.044 26.7908L92.5142 38.852C92.3454 39.0149 92.2111 39.21 92.1194 39.426C92.0277 39.6421 91.9805 39.8745 91.9805 40.1091C91.9805 40.3438 92.0277 40.5759 92.1194 40.792C92.2111 41.008 92.3454 41.2033 92.5142 41.3663L103.851 53.1717C104.087 53.3887 104.376 53.5399 104.689 53.6103C105.001 53.6807 105.327 53.6677 105.634 53.5728C105.94 53.4779 106.216 53.3044 106.434 53.0695C106.652 52.8346 106.805 52.5464 106.877 52.234C107.53 50.0201 108.805 48.0404 110.55 46.5295C112.295 45.0186 114.437 44.04 116.722 43.7103C117.75 43.6537 118.78 43.7255 119.79 43.9236C121.889 44.4529 123.804 45.5431 125.331 47.0773C126.775 48.6812 127.774 50.6353 128.229 52.7454C128.378 53.7628 128.378 54.7966 128.229 55.814C127.794 58.1008 126.705 60.212 125.094 61.8916C123.482 63.5711 121.418 64.7466 119.151 65.2752C118.832 65.3191 118.531 65.4506 118.282 65.6548C118.033 65.8589 117.844 66.128 117.739 66.4323C117.633 66.7366 117.613 67.0643 117.682 67.3791C117.751 67.6939 117.905 67.9834 118.128 68.2159V68.4292L129.933 80.5754C130.096 80.7443 130.292 80.8785 130.508 80.9703C130.724 81.062 130.956 81.1092 131.191 81.1092C131.425 81.1092 131.658 81.062 131.874 80.9703C132.09 80.8785 132.285 80.7443 132.448 80.5754L145.234 68.5569C145.632 68.4964 146.038 68.5786 146.382 68.7892C146.725 68.9999 146.983 69.3253 147.109 69.7077C147.586 71.3032 148.432 72.7635 149.581 73.9696C151.101 75.4326 152.999 76.4438 155.062 76.8902C157.124 77.3367 159.271 77.2008 161.26 76.4977C163.25 75.7947 165.005 74.5522 166.329 72.9091C167.654 71.2659 168.495 69.2868 168.759 67.1931C168.862 66.6582 168.862 66.1085 168.759 65.5736C168.563 63.4362 167.767 61.3978 166.463 59.6935C165.158 57.9892 163.398 56.6885 161.386 55.9418C161.012 55.8167 160.692 55.5658 160.483 55.2316C160.273 54.8974 160.185 54.5006 160.235 54.1092L172.552 42.2187C172.823 41.8963 172.971 41.4888 172.971 41.0679C172.971 40.6471 172.823 40.2398 172.552 39.9174Z" fill="#042A97"/>
<path d="M115.316 149.83H115.658H132.023C132.262 149.83 132.498 149.782 132.718 149.689C132.938 149.597 133.137 149.461 133.304 149.29C133.471 149.12 133.602 148.917 133.689 148.695C133.776 148.473 133.818 148.236 133.813 147.997V130.609C134.039 130.272 134.381 130.03 134.773 129.928C135.166 129.826 135.582 129.871 135.944 130.055C137.426 130.843 139.081 131.253 140.76 131.248C142.881 131.199 144.946 130.555 146.72 129.39C148.493 128.225 149.904 126.586 150.793 124.659C151.681 122.732 152.01 120.594 151.743 118.489C151.476 116.384 150.624 114.396 149.283 112.752C148.982 112.295 148.608 111.892 148.175 111.558C146.494 110.223 144.47 109.39 142.336 109.156C140.201 108.922 138.045 109.297 136.114 110.237C135.771 110.422 135.375 110.481 134.993 110.403C134.611 110.325 134.269 110.115 134.026 109.811V92.5077C134.038 92.0513 133.87 91.6087 133.56 91.2742C133.249 90.9397 132.82 90.7399 132.364 90.7178H131.81H116.212C115.939 90.6676 115.682 90.5548 115.46 90.3882C115.239 90.2216 115.059 90.0059 114.935 89.7579C114.811 89.51 114.746 89.2368 114.746 88.9596C114.745 88.6824 114.809 88.409 114.933 88.1608C115.717 86.5832 116.139 84.8506 116.169 83.0892C116.176 81.4155 115.802 79.762 115.076 78.254C114.35 76.746 113.29 75.4231 111.978 74.3849C110.665 73.3468 109.133 72.6208 107.498 72.2618C105.863 71.9028 104.168 71.9202 102.541 72.3128C100.914 72.7054 99.3981 73.463 98.107 74.528C96.8159 75.593 95.7837 76.9377 95.0888 78.4603C94.3939 79.9829 94.0544 81.6436 94.0959 83.3168C94.1374 84.99 94.5589 86.6318 95.3284 88.1181C95.4429 88.3704 95.4987 88.6452 95.4917 88.9222C95.4847 89.1991 95.415 89.471 95.2878 89.7171C95.1606 89.9632 94.9795 90.1773 94.7577 90.3432C94.5358 90.5092 94.2792 90.6226 94.0072 90.6751H78.4087H77.8549C77.532 90.6972 77.2214 90.8085 76.958 90.9966C76.6946 91.1848 76.4886 91.4423 76.3631 91.7406C76.4077 92.023 76.4077 92.3106 76.3631 92.593V110.408H75.3829C75.159 110.523 74.9106 110.584 74.6585 110.584C74.4064 110.584 74.1577 110.523 73.9338 110.408H73.6354H72.0159H71.7178C71.1552 110.297 70.5854 110.226 70.013 110.194C67.5849 110.251 65.2593 111.183 63.4654 112.821C61.6715 114.458 60.5306 116.689 60.2534 119.102C60.2306 119.542 60.2306 119.983 60.2534 120.423C60.2811 122.411 60.8086 124.36 61.7876 126.091C61.9965 126.535 62.2386 126.962 62.5121 127.37C62.7549 127.719 63.058 128.022 63.4071 128.265C65.3189 129.726 67.6499 130.532 70.0556 130.566H71.7178H72.0159H73.124L73.9764 130.183C74.2212 130.036 74.501 129.959 74.7862 129.959C75.0714 129.959 75.3513 130.036 75.596 130.183H76.4057V148.295C76.4291 148.522 76.4291 148.751 76.4057 148.977C76.5438 149.28 76.7655 149.538 77.0449 149.719C77.3242 149.9 77.6496 149.998 77.9826 150H94.689C95.0085 149.983 95.318 149.883 95.5867 149.709C95.8554 149.535 96.0741 149.294 96.2206 149.01C96.3671 148.725 96.4366 148.407 96.4222 148.087C96.4077 147.768 96.3098 147.457 96.1381 147.187C94.951 145.186 94.3749 142.881 94.4809 140.556C94.5869 138.232 95.3705 135.989 96.7349 134.103C97.3815 133.3 98.1424 132.597 98.9935 132.015C100.807 130.834 102.924 130.205 105.088 130.205C107.252 130.205 109.369 130.834 111.182 132.015C112.033 132.597 112.795 133.3 113.441 134.103C114.789 135.997 115.558 138.241 115.657 140.563C115.755 142.886 115.178 145.186 113.995 147.187C113.854 147.442 113.777 147.727 113.771 148.018C113.764 148.309 113.829 148.597 113.959 148.857C114.089 149.117 114.281 149.342 114.517 149.511C114.754 149.681 115.028 149.79 115.316 149.83Z" fill="#666666"/>
<path d="M57.4816 88.4592V88.8429C57.4876 89.0461 57.5627 89.2412 57.6944 89.3961C57.8261 89.5511 58.0064 89.6566 58.2061 89.6953H73.6766C73.875 89.6753 74.0749 89.6753 74.2733 89.6953C74.7968 89.7159 75.302 89.8941 75.7225 90.2067V89.7379V72.3495C75.9424 72.0056 76.2841 71.7575 76.6792 71.6547C77.0743 71.552 77.4938 71.6022 77.8534 71.7954C79.3586 72.5642 81.0216 72.9725 82.7117 72.9886C84.8264 72.9138 86.8788 72.2531 88.6399 71.0801C90.401 69.9071 91.8017 68.2679 92.6856 66.3453C93.5695 64.4228 93.902 62.2926 93.646 60.1921C93.3899 58.0917 92.5553 56.1036 91.2354 54.4497C90.907 54.0146 90.5199 53.6273 90.0849 53.2989C88.4086 51.9539 86.3831 51.1153 84.2467 50.8813C82.1103 50.6473 79.9515 51.0275 78.0238 51.9777C77.6745 52.1498 77.2769 52.1972 76.8969 52.1119C76.517 52.0267 76.1777 51.8139 75.9355 51.509V34.2485C75.947 34.019 75.913 33.7894 75.8356 33.573C75.7583 33.3566 75.6389 33.1577 75.4845 32.9875C75.3301 32.8172 75.1437 32.6789 74.9359 32.5809C74.728 32.4828 74.5029 32.4269 74.2733 32.416H73.7193H57.9077C57.6364 32.3719 57.3795 32.2643 57.1575 32.1023C56.9356 31.9402 56.7551 31.7281 56.6305 31.4832C56.5059 31.2382 56.4408 30.9672 56.4406 30.6924C56.4404 30.4176 56.505 30.1465 56.6292 29.9014C57.4321 28.3155 57.8554 26.5646 57.8653 24.7871C57.8653 23.3375 57.5796 21.9022 57.0248 20.5629C56.4701 19.2237 55.6572 18.0071 54.6322 16.9821C53.6072 15.9571 52.3903 15.1439 51.0511 14.5892C49.7119 14.0345 48.2766 13.749 46.827 13.749C45.3774 13.749 43.9421 14.0345 42.6029 14.5892C41.2636 15.1439 40.0467 15.9571 39.0217 16.9821C37.9968 18.0071 37.1839 19.2237 36.6291 20.5629C36.0744 21.9022 35.7887 23.3375 35.7887 24.7871C35.7986 26.5646 36.2219 28.3155 37.0248 29.9014C37.1493 30.1495 37.2128 30.4239 37.2102 30.7015C37.2077 30.9791 37.1391 31.2522 37.01 31.498C36.8808 31.7438 36.6948 31.9551 36.4676 32.1147C36.2404 32.2744 35.9786 32.3777 35.7036 32.416H20.1051H19.551C19.0951 32.4381 18.6659 32.6376 18.3552 32.9721C18.0446 33.3066 17.8774 33.7495 17.8891 34.2059V51.509C17.6515 51.8207 17.3088 52.0357 16.9248 52.114C16.5408 52.1924 16.1413 52.129 15.8006 51.9353C13.8755 50.9844 11.7201 50.5996 9.58494 50.8259C7.44973 51.0522 5.42265 51.8804 3.73972 53.2138C3.29471 53.5306 2.9057 53.9193 2.58893 54.3643C1.24526 55.9943 0.383844 57.9676 0.101637 60.061C-0.18057 62.1545 0.127681 64.2851 0.991778 66.2127C1.85587 68.1403 3.24133 69.7881 4.99195 70.9703C6.74257 72.1525 8.78875 72.8222 10.8996 72.9036C12.5911 72.9439 14.2645 72.5475 15.7582 71.7528C16.1198 71.5693 16.536 71.5243 16.9285 71.6264C17.3209 71.7284 17.6626 71.9704 17.8891 72.3068V89.6953C17.8683 89.9079 17.8683 90.1218 17.8891 90.3344C18.3055 90.0143 18.8129 89.8352 19.338 89.823C19.5364 89.8031 19.7363 89.8031 19.9347 89.823H35.4053C35.6016 89.7776 35.7781 89.6704 35.9086 89.5168C36.0391 89.3633 36.1166 89.1716 36.1297 88.9706V88.5872C35.3265 86.9255 34.9043 85.1055 34.8939 83.2598C34.9048 82.1191 35.077 80.9856 35.4053 79.8931C36.0937 77.4636 37.5483 75.3213 39.5527 73.7854C41.557 72.2495 44.0037 71.4023 46.5286 71.3694H47.04C49.5723 71.3931 52.0289 72.2363 54.0418 73.7729C56.0547 75.3095 57.5155 77.4567 58.2061 79.8931C58.5344 80.9856 58.7065 82.1191 58.7175 83.2598C58.7009 85.0638 58.2786 86.8407 57.4816 88.4592Z" fill="#666666"/>
<path d="M62.6795 111.004C64.7724 109.116 67.4897 108.068 70.3083 108.063C70.9467 108.014 71.5879 108.014 72.2262 108.063C72.8079 108.021 73.3918 108.021 73.9735 108.063H74.8686V92.3367C74.8815 92.1127 74.8098 91.8921 74.6678 91.7184C74.5257 91.5448 74.3236 91.4307 74.1015 91.399H57.7785C57.1999 91.2886 56.6737 90.991 56.281 90.552C55.8882 90.1131 55.6506 89.557 55.6049 88.9697V88.7567C55.6029 88.3725 55.6904 87.993 55.8606 87.6485C56.5767 86.2039 56.9556 84.6156 56.9687 83.0033C56.9619 82.0329 56.8038 81.0696 56.5 80.1479C55.943 78.0668 54.7215 76.2244 53.0214 74.9012C51.3212 73.578 49.2354 72.8463 47.0812 72.8174H46.5698C44.5567 72.8326 42.6009 73.4895 40.9868 74.6926C39.1251 76.0219 37.772 77.9462 37.151 80.1479C37.151 80.6593 36.8955 81.2134 36.8103 81.7674C36.7893 82.1791 36.7893 82.5916 36.8103 83.0033C36.8233 84.6156 37.202 86.2039 37.9181 87.6485C38.0543 88.0023 38.1267 88.3776 38.1314 88.7567V89.0977C38.0766 89.6886 37.8303 90.2455 37.4304 90.6839C37.0304 91.1223 36.4985 91.4183 35.9152 91.527H19.6775C19.5619 91.5268 19.4475 91.5502 19.3412 91.5957C19.2349 91.6411 19.1389 91.7078 19.0592 91.7915C18.9795 91.8752 18.9176 91.9742 18.8774 92.0826C18.8371 92.191 18.8193 92.3066 18.8251 92.4221V110.023V110.279C18.5869 110.583 18.2829 110.829 17.936 110.999C17.5891 111.169 17.2084 111.258 16.8221 111.259C16.4056 111.262 15.995 111.159 15.6287 110.961C14.3097 110.281 12.8508 109.916 11.3669 109.896C8.95164 109.949 6.61307 110.754 4.67571 112.197C4.32215 112.465 4.00685 112.781 3.73823 113.135C2.32246 115.177 1.55052 117.597 1.52198 120.081C1.4994 121.397 1.73628 122.704 2.21885 123.927C2.70142 125.151 3.42021 126.268 4.33443 127.214C5.24865 128.16 6.34031 128.916 7.54695 129.44C8.75359 129.964 10.0516 130.245 11.3669 130.267C12.8502 130.242 14.308 129.877 15.6287 129.202C15.9779 128.999 16.3759 128.896 16.7795 128.904C17.1951 128.916 17.6022 129.023 17.9711 129.214C18.34 129.406 18.6612 129.679 18.9104 130.011V130.267V147.954C18.9104 148.071 18.9336 148.188 18.9786 148.296C19.0235 148.405 19.0895 148.504 19.1726 148.587C19.2557 148.67 19.3543 148.736 19.4629 148.781C19.5715 148.826 19.6877 148.849 19.8052 148.849H36.5119C36.734 148.834 36.9443 148.744 37.1084 148.593C37.1687 148.384 37.1687 148.163 37.1084 147.954V147.4C35.9105 145.483 35.2755 143.268 35.2758 141.007C35.3277 138.275 36.1555 135.615 37.6624 133.336C38.3658 132.476 39.1831 131.716 40.0917 131.077C42.0604 129.839 44.3298 129.161 46.6551 129.117C48.9805 129.161 51.2496 129.839 53.2183 131.077C54.1399 131.715 54.9714 132.475 55.6902 133.336C57.217 135.605 58.0466 138.272 58.0769 141.007C58.0772 143.268 57.4422 145.483 56.2443 147.4V147.954C56.1839 148.163 56.1839 148.384 56.2443 148.593C56.4179 148.728 56.6232 148.816 56.8408 148.849H73.5901C73.82 148.838 74.0366 148.739 74.1954 148.572C74.3541 148.406 74.4425 148.184 74.4422 147.954V131.972H73.2917C72.7335 131.939 72.1781 131.867 71.6295 131.759C71.0478 131.801 70.4637 131.801 69.882 131.759C67.2233 131.706 64.6409 130.86 62.4664 129.33H62.2107C61.6638 128.96 61.1994 128.481 60.8469 127.923C59.9702 126.61 59.2952 125.174 58.844 123.661C58.844 123.192 58.8439 122.766 58.5456 122.34C58.3786 121.555 58.2929 120.756 58.2899 119.953C58.3442 118.236 58.7636 116.549 59.5205 115.006C60.2774 113.462 61.3543 112.098 62.6795 111.004Z" fill="#666666"/>
</g>
<defs>
<filter id="filter0_d" x="0" y="0" width="177.971" height="155" filterUnits="userSpaceOnUse" color-interpolation-filters="sRGB">
<feFlood flood-opacity="0" result="BackgroundImageFix"/>
<feColorMatrix in="SourceAlpha" type="matrix" values="0 0 0 0 0 0 0 0 0 0 0 0 0 0 0 0 0 0 127 0"/>
<feOffset dx="5" dy="5"/>
<feColorMatrix type="matrix" values="0 0 0 0 0 0 0 0 0 0 0 0 0 0 0 0 0 0 0.15 0"/>
<feBlend mode="normal" in2="BackgroundImageFix" result="effect1_dropShadow"/>
<feBlend mode="normal" in="SourceGraphic" in2="effect1_dropShadow" result="shape"/>
</filter>
</defs>
</svg>
